<svg width="48" height="48" viewBox="0 0 48 48" fill="none" xmlns="http://www.w3.org/2000/svg">
<rect width="48" height="48" rx="24" fill="#2F9EA5"/>
<path d="M16 23.25C15.5858 23.25 15.25 23.5858 15.25 24C15.25 24.4142 15.5858 24.75 16 24.75V23.25ZM32.5303 24.5303C32.8232 24.2374 32.8232 23.7626 32.5303 23.4697L27.7574 18.6967C27.4645 18.4038 26.9896 18.4038 26.6967 18.6967C26.4038 18.9896 26.4038 19.4645 26.6967 19.7574L30.9393 24L26.6967 28.2426C26.4038 28.5355 26.4038 29.0104 26.6967 29.3033C26.9896 29.5962 27.4645 29.5962 27.7574 29.3033L32.5303 24.5303ZM16 24.75H32V23.25H16V24.75Z" fill="#FEFEFE"/>
</svg>
