<svg width="40" height="40" viewBox="0 0 40 40" fill="none" xmlns="http://www.w3.org/2000/svg">
<circle cx="20" cy="20" r="20" fill="#F0F5F4"/>
<path d="M13 14.5C13 14.25 13.2188 14 13.5 14H26.5C26.75 14 27 14.25 27 14.5C27 14.7812 26.75 15 26.5 15H13.5C13.2188 15 13 14.7812 13 14.5ZM13 19.5C13 19.25 13.2188 19 13.5 19H26.5C26.75 19 27 19.25 27 19.5C27 19.7812 26.75 20 26.5 20H13.5C13.2188 20 13 19.7812 13 19.5ZM26.5 25H13.5C13.2188 25 13 24.7812 13 24.5C13 24.25 13.2188 24 13.5 24H26.5C26.75 24 27 24.25 27 24.5C27 24.7812 26.75 25 26.5 25Z" fill="#2F9EA5"/>
</svg>
