<svg width="40" height="40" viewBox="0 0 40 40" fill="none" xmlns="http://www.w3.org/2000/svg">
<circle cx="20" cy="20" r="20" fill="#F0F5F4"/>
<path d="M18 24.5C18 24.7812 17.75 25 17.5 25C17.2188 25 17 24.7812 17 24.5V21.5C17 21.25 17.2188 21 17.5 21C17.75 21 18 21.25 18 21.5V24.5ZM20 21C20.25 21 20.5 21.25 20.5 21.5V24.5C20.5 24.7812 20.25 25 20 25C19.7188 25 19.5 24.7812 19.5 24.5V21.5C19.5 21.25 19.7188 21 20 21ZM23 24.5C23 24.7812 22.75 25 22.5 25C22.2188 25 22 24.7812 22 24.5V21.5C22 21.25 22.2188 21 22.5 21C22.75 21 23 21.25 23 21.5V24.5ZM21.9062 12.25L25.2812 18H28.5C28.75 18 29 18.25 29 18.5C29 18.7812 28.75 19 28.5 19H27.75L25.875 26.5C25.625 27.375 24.8438 28 23.9375 28H16.0312C15.125 28 14.3438 27.375 14.0938 26.5L12.25 19H11.5C11.2188 19 11 18.7812 11 18.5C11 18.25 11.2188 18 11.5 18H14.6875L18.0625 12.25C18.1875 12.0312 18.5 11.9375 18.75 12.0938C18.9688 12.2188 19.0625 12.5312 18.9062 12.7812L15.8438 18H24.125L21.0625 12.7812C20.9062 12.5312 21 12.2188 21.2188 12.0938C21.4688 11.9375 21.7812 12.0312 21.9062 12.25ZM15.0625 26.25C15.1875 26.6875 15.5938 27 16.0312 27H23.9375C24.375 27 24.7812 26.6875 24.9062 26.25L26.7188 19H13.25L15.0625 26.25Z" fill="#2F9EA5"/>
</svg>
