<svg width="51" height="52" viewBox="0 0 51 52" fill="none" xmlns="http://www.w3.org/2000/svg">
<path fill-rule="evenodd" clip-rule="evenodd" d="M46.3851 19.3272C45.1715 19.7627 43.8635 20 42.5 20C36.1487 20 31 14.8513 31 8.5C31 7.34928 31.169 6.23804 31.4836 5.18974C29.1286 4.41761 26.6131 4 24 4C10.7452 4 0 14.7452 0 28C0 41.2548 10.7452 52 24 52C37.2548 52 48 41.2548 48 28C48 24.9417 47.428 22.0171 46.3851 19.3272Z" fill="#F0F5F4"/>
<circle cx="42.5" cy="8.5" r="8.5" fill="#2F9EA5"/>
<path d="M42.4996 12.0994C41.9882 12.0994 41.5336 12.0118 41.1359 11.8366C40.7406 11.6615 40.4281 11.4176 40.1984 11.1051C39.9688 10.7926 39.8469 10.4316 39.8327 10.022H41.1679C41.1797 10.2185 41.2448 10.3902 41.3632 10.5369C41.4816 10.6813 41.639 10.7938 41.8355 10.8743C42.032 10.9548 42.2522 10.995 42.496 10.995C42.7564 10.995 42.9872 10.95 43.1885 10.8601C43.3897 10.7678 43.5471 10.6399 43.6608 10.4766C43.7744 10.3132 43.83 10.125 43.8277 9.91193C43.83 9.69176 43.7732 9.49763 43.6572 9.32955C43.5412 9.16146 43.3731 9.03007 43.153 8.93537C42.9352 8.84067 42.6724 8.79332 42.3646 8.79332H41.7219V7.7777H42.3646C42.6179 7.7777 42.8393 7.7339 43.0287 7.64631C43.2204 7.55871 43.3708 7.43561 43.4797 7.27699C43.5886 7.116 43.6418 6.93016 43.6395 6.71946C43.6418 6.51349 43.5957 6.33475 43.501 6.18324C43.4086 6.02936 43.2773 5.9098 43.1068 5.82457C42.9387 5.73935 42.741 5.69673 42.5138 5.69673C42.2912 5.69673 42.0853 5.73698 41.8959 5.81747C41.7065 5.89796 41.5538 6.01278 41.4378 6.16193C41.3218 6.30871 41.2602 6.4839 41.2531 6.6875H39.9854C39.9948 6.2803 40.112 5.92282 40.3369 5.61506C40.5642 5.30492 40.8672 5.06345 41.246 4.89062C41.6248 4.71544 42.0497 4.62784 42.5209 4.62784C43.0062 4.62784 43.4276 4.71899 43.7851 4.90128C44.1449 5.0812 44.4231 5.32386 44.6196 5.62926C44.8161 5.93466 44.9143 6.27202 44.9143 6.64134C44.9167 7.0509 44.796 7.39418 44.5521 7.67116C44.3106 7.94815 43.9934 8.12926 43.6004 8.21449V8.27131C44.1118 8.34233 44.5036 8.53172 44.7758 8.83949C45.0505 9.14489 45.1866 9.52486 45.1842 9.9794C45.1842 10.3866 45.0682 10.7512 44.8362 11.0732C44.6066 11.3928 44.2893 11.6437 43.8845 11.826C43.482 12.0083 43.0204 12.0994 42.4996 12.0994Z" fill="#FEFEFE"/>
<path d="M21.75 34.125C21.75 34.4766 21.4375 34.75 21.125 34.75C20.7734 34.75 20.5 34.4766 20.5 34.125V30.375C20.5 30.0625 20.7734 29.75 21.125 29.75C21.4375 29.75 21.75 30.0625 21.75 30.375V34.125ZM24.25 29.75C24.5625 29.75 24.875 30.0625 24.875 30.375V34.125C24.875 34.4766 24.5625 34.75 24.25 34.75C23.8984 34.75 23.625 34.4766 23.625 34.125V30.375C23.625 30.0625 23.8984 29.75 24.25 29.75ZM28 34.125C28 34.4766 27.6875 34.75 27.375 34.75C27.0234 34.75 26.75 34.4766 26.75 34.125V30.375C26.75 30.0625 27.0234 29.75 27.375 29.75C27.6875 29.75 28 30.0625 28 30.375V34.125ZM26.6328 18.8125L30.8516 26H34.875C35.1875 26 35.5 26.3125 35.5 26.625C35.5 26.9766 35.1875 27.25 34.875 27.25H33.9375L31.5938 36.625C31.2812 37.7188 30.3047 38.5 29.1719 38.5H19.2891C18.1562 38.5 17.1797 37.7188 16.8672 36.625L14.5625 27.25H13.625C13.2734 27.25 13 26.9766 13 26.625C13 26.3125 13.2734 26 13.625 26H17.6094L21.8281 18.8125C21.9844 18.5391 22.375 18.4219 22.6875 18.6172C22.9609 18.7734 23.0781 19.1641 22.8828 19.4766L19.0547 26H29.4062L25.5781 19.4766C25.3828 19.1641 25.5 18.7734 25.7734 18.6172C26.0859 18.4219 26.4766 18.5391 26.6328 18.8125ZM18.0781 36.3125C18.2344 36.8594 18.7422 37.25 19.2891 37.25H29.1719C29.7188 37.25 30.2266 36.8594 30.3828 36.3125L32.6484 27.25H15.8125L18.0781 36.3125Z" fill="#2F9EA5"/>
</svg>
