<svg width="64" height="64" viewBox="0 0 64 64" fill="none" xmlns="http://www.w3.org/2000/svg">
<g clip-path="url(#clip0_33_814)">
<mask id="mask0_33_814" style="mask-type:luminance" maskUnits="userSpaceOnUse" x="0" y="0" width="64" height="64">
<path d="M0 0.000190735H63.9998V64H0V0.000190735Z" fill="white"/>
</mask>
<g mask="url(#mask0_33_814)">
<path fill-rule="evenodd" clip-rule="evenodd" d="M8.95368 28.6169C8.9537 28.6169 8.95365 28.6169 8.95368 28.6169H12.9616C13.3931 28.6169 13.8069 28.4455 14.112 28.1404C14.4172 27.8353 14.5886 27.4215 14.5886 26.9899V18.9738C14.5886 18.5423 14.4172 18.1285 14.112 17.8234C13.8069 17.5183 13.3931 17.3468 12.9616 17.3468H8.95368C8.95365 17.3468 8.9537 17.3468 8.95368 17.3468C8.74002 17.3468 8.52838 17.3889 8.33099 17.4706C8.13357 17.5524 7.95419 17.6722 7.80309 17.8233C7.65198 17.9744 7.53212 18.1538 7.45034 18.3512C7.36857 18.5486 7.32648 18.7602 7.32648 18.9738V26.9899C7.32648 27.2036 7.36857 27.4152 7.45034 27.6126C7.53212 27.81 7.65198 27.9894 7.80309 28.1405C7.95419 28.2916 8.13357 28.4114 8.33099 28.4932C8.52839 28.5749 8.74003 28.617 8.95368 28.6169ZM8.95352 27.3669C8.90401 27.3669 8.85498 27.3572 8.80924 27.3383C8.76349 27.3193 8.72193 27.2915 8.68691 27.2565C8.6519 27.2215 8.62413 27.18 8.60518 27.1342C8.58623 27.0885 8.57648 27.0395 8.57648 26.9899V18.9738C8.57648 18.9243 8.58623 18.8753 8.60518 18.8296C8.62413 18.7838 8.6519 18.7423 8.68691 18.7073C8.72192 18.6722 8.76349 18.6445 8.80924 18.6255C8.85498 18.6066 8.90401 18.5968 8.95352 18.5968H12.9616C13.0616 18.5968 13.1575 18.6366 13.2282 18.7073C13.2989 18.778 13.3386 18.8739 13.3386 18.9738V26.9899C13.3386 27.0899 13.2989 27.1858 13.2282 27.2565C13.1575 27.3272 13.0616 27.3669 12.9616 27.3669H8.95352Z" fill="#2F9EA5"/>
<path fill-rule="evenodd" clip-rule="evenodd" d="M7.3266 24.9861C7.3266 25.3313 7.60642 25.6111 7.9516 25.6111H13.9637C14.3089 25.6111 14.5887 25.3313 14.5887 24.9861C14.5887 24.6409 14.3089 24.3611 13.9637 24.3611H7.9516C7.60642 24.3611 7.3266 24.6409 7.3266 24.9861Z" fill="#2F9EA5"/>
<path fill-rule="evenodd" clip-rule="evenodd" d="M23.3588 42.0204C23.3588 46.7927 27.2276 50.6614 31.9999 50.6614C36.7723 50.6614 40.641 46.7927 40.641 42.0204V39.0143C40.641 38.6691 40.3611 38.3893 40.016 38.3893C39.6708 38.3893 39.391 38.6691 39.391 39.0143V42.0204C39.391 46.1023 36.0819 49.4114 31.9999 49.4114C27.9179 49.4114 24.6088 46.1023 24.6088 42.0204V39.0143C24.6088 38.5092 24.6594 38.0164 24.7556 37.5405C24.824 37.2022 24.6052 36.8724 24.2668 36.8041C23.9285 36.7357 23.5988 36.9545 23.5304 37.2928C23.4179 37.8497 23.3588 38.4254 23.3588 39.0143V42.0204Z" fill="#355355"/>
<path fill-rule="evenodd" clip-rule="evenodd" d="M44.024 56.6733C44.3692 56.6733 44.649 56.3935 44.649 56.0483V38.0121C44.649 31.0262 38.9858 25.3631 31.9998 25.3631C25.0139 25.3631 19.3507 31.0262 19.3507 38.0121V45.0262C19.3507 49.3078 21.4784 53.0922 24.7314 55.3798C25.0138 55.5784 25.4036 55.5105 25.6022 55.2281C25.8007 54.9458 25.7328 54.5559 25.4505 54.3574C22.516 52.2938 20.6007 48.8837 20.6007 45.0262V38.0121C20.6007 31.7166 25.7042 26.6131 31.9998 26.6131C38.2955 26.6131 43.399 31.7166 43.399 38.0121V56.0483C43.399 56.3935 43.6788 56.6733 44.024 56.6733Z" fill="#355355"/>
<path fill-rule="evenodd" clip-rule="evenodd" d="M46.0282 63.6875C46.3733 63.6875 46.6532 63.4077 46.6532 63.0625V59.3179C46.6531 58.5289 46.3961 57.7613 45.9209 57.1314C45.4458 56.5014 44.7784 56.0434 44.0198 55.8266L37.6333 54.002C37.6333 54.0019 37.6333 54.002 37.6333 54.002C37.3451 53.9196 37.0916 53.7456 36.9111 53.5064C36.7307 53.2671 36.6331 52.9756 36.6331 52.6759V49.0343C36.6331 48.6891 36.3532 48.4093 36.0081 48.4093C35.6629 48.4093 35.3831 48.6891 35.3831 49.0343V52.6759C35.3831 53.2472 35.5692 53.803 35.9132 54.2591C36.2572 54.7152 36.7405 55.0469 37.2898 55.2038L43.6763 57.0285C43.6763 57.0285 43.6763 57.0285 43.6763 57.0285C44.1738 57.1707 44.6114 57.471 44.923 57.8841C45.2346 58.2972 45.4031 58.8005 45.4032 59.3179C45.4032 59.3179 45.4032 59.3179 45.4032 59.3179V63.0625C45.4032 63.4077 45.683 63.6875 46.0282 63.6875Z" fill="#355355"/>
<path fill-rule="evenodd" clip-rule="evenodd" d="M17.9717 63.6875C18.3169 63.6875 18.5967 63.4077 18.5967 63.0625V59.3179C18.5967 58.8005 18.7652 58.2971 19.0768 57.884C19.3884 57.471 19.826 57.1706 20.3235 57.0285M20.3235 57.0285L26.7099 55.2037C26.7099 55.2037 26.71 55.2037 26.7099 55.2037C27.2593 55.0468 27.7426 54.7152 28.0866 54.2591C28.4307 53.803 28.6168 53.2472 28.6168 52.6759C28.6168 52.6759 28.6168 52.6759 28.6168 52.6759V49.0343C28.6168 48.6891 28.337 48.4093 27.9918 48.4093C27.6466 48.4093 27.3668 48.6891 27.3668 49.0343V52.6759C27.3668 52.9756 27.2692 53.2671 27.0887 53.5063C26.9082 53.7456 26.6548 53.9195 26.3666 54.0018L19.9801 55.8266C19.2214 56.0434 18.554 56.5014 18.0788 57.1313C17.6037 57.7613 17.3467 58.5288 17.3467 59.3179C17.3467 59.3179 17.3467 59.3179 17.3467 59.3179V63.0625C17.3467 63.4077 17.6265 63.6875 17.9717 63.6875" fill="#355355"/>
<path fill-rule="evenodd" clip-rule="evenodd" d="M23.4782 30.6183L23.4795 30.6199C23.4815 30.6225 23.485 30.627 23.4901 30.6334C23.5003 30.6462 23.5167 30.6667 23.5394 30.6942C23.5848 30.7493 23.6554 30.8327 23.7515 30.9403C23.9437 31.1556 24.238 31.4675 24.6379 31.8432C25.4379 32.5948 26.6594 33.6005 28.3306 34.5979C31.6687 36.5901 36.8142 38.5576 44.0094 38.3893C44.3545 38.3813 44.6408 38.6545 44.6489 38.9995C44.6569 39.3446 44.3837 39.6309 44.0386 39.639C36.5869 39.8133 31.2113 37.7728 27.69 35.6713C25.9316 34.6218 24.6388 33.5592 23.782 32.7543C23.3535 32.3517 23.0338 32.0133 22.819 31.7728C22.7117 31.6525 22.6305 31.5567 22.575 31.4895C22.5473 31.4559 22.526 31.4294 22.5111 31.4106C22.5037 31.4012 22.4978 31.3938 22.4935 31.3883L22.4883 31.3815L22.4866 31.3793L22.486 31.3785C22.4857 31.3781 22.4855 31.3778 22.9818 30.9981L22.4855 31.3778C22.2757 31.1037 22.3279 30.7114 22.6021 30.5017C22.876 30.2921 23.2679 30.3441 23.4778 30.6177L23.4779 30.6178C23.478 30.618 23.4781 30.6181 23.4782 30.6183Z" fill="#355355"/>
<path fill-rule="evenodd" clip-rule="evenodd" d="M28.9939 40.6411C29.3391 40.6411 29.6189 40.3613 29.6189 40.0161V39.0141C29.6189 38.6689 29.3391 38.3891 28.9939 38.3891C28.6487 38.3891 28.3689 38.6689 28.3689 39.0141V40.0161C28.3689 40.3613 28.6487 40.6411 28.9939 40.6411Z" fill="#355355"/>
<path fill-rule="evenodd" clip-rule="evenodd" d="M35.0059 40.6411C35.351 40.6411 35.6309 40.3613 35.6309 40.0161V39.0141C35.6309 38.6689 35.351 38.3891 35.0059 38.3891C34.6607 38.3891 34.3809 38.6689 34.3809 39.0141V40.0161C34.3809 40.3613 34.6607 40.6411 35.0059 40.6411Z" fill="#355355"/>
<path fill-rule="evenodd" clip-rule="evenodd" d="M31.9999 44.4011C31.33 44.4011 30.7883 44.0904 30.5111 43.6869C30.3156 43.4023 29.9265 43.3301 29.642 43.5256C29.3575 43.7211 29.2853 44.1101 29.4808 44.3946C30.0095 45.1644 30.9518 45.6511 31.9999 45.6511C33.0481 45.6511 33.9903 45.1644 34.519 44.3946C34.7145 44.1101 34.6423 43.7211 34.3578 43.5256C34.0733 43.3301 33.6842 43.4023 33.4887 43.6869C33.2115 44.0904 32.6699 44.4011 31.9999 44.4011Z" fill="#355355"/>
<path fill-rule="evenodd" clip-rule="evenodd" d="M23.1732 55.9885C25.0852 58.8186 28.325 60.6814 32 60.6814C35.6863 60.6814 38.9346 58.8072 40.8442 55.9625C41.0366 55.6759 40.9602 55.2876 40.6737 55.0952C40.3871 54.9029 39.9988 54.9792 39.8064 55.2658C38.119 57.7794 35.2523 59.4314 32 59.4314C28.7577 59.4314 25.8985 57.7895 24.209 55.2888C24.0157 55.0028 23.6272 54.9275 23.3412 55.1208C23.0552 55.314 22.98 55.7025 23.1732 55.9885Z" fill="#355355"/>
<path fill-rule="evenodd" clip-rule="evenodd" d="M21.3547 10.9579C21.3547 16.8371 26.1208 21.603 31.9998 21.603C37.879 21.603 42.6451 16.8371 42.6451 10.9579C42.6451 9.25568 42.245 7.64497 41.5332 6.21646C41.3793 5.90751 41.004 5.78185 40.6951 5.93579C40.3861 6.08974 40.2605 6.46499 40.4144 6.77393C41.0419 8.03317 41.3951 9.45345 41.3951 10.9579C41.3951 16.1467 37.1886 20.353 31.9998 20.353C26.8111 20.353 22.6047 16.1467 22.6047 10.9579C22.6047 5.76913 26.8111 1.56284 31.9998 1.56284C34.2706 1.56284 36.3516 2.36751 37.9757 3.70787C38.242 3.92758 38.6359 3.88987 38.8556 3.62365C39.0753 3.35742 39.0376 2.9635 38.7714 2.74379C36.9315 1.22541 34.5715 0.31284 31.9998 0.31284C26.1208 0.31284 21.3547 5.07877 21.3547 10.9579Z" fill="#2F9EA5"/>
<path fill-rule="evenodd" clip-rule="evenodd" d="M0.3125 22.9821C0.3125 28.8613 5.07856 33.6272 10.9576 33.6272C16.8367 33.6272 21.6028 28.8613 21.6028 22.9821C21.6028 17.1029 16.8367 12.337 10.9576 12.337C5.07856 12.337 0.3125 17.1029 0.3125 22.9821ZM10.9576 32.3772C5.76891 32.3772 1.5625 28.1709 1.5625 22.9821C1.5625 17.7933 5.76891 13.587 10.9576 13.587C16.1464 13.587 20.3528 17.7933 20.3528 22.9821C20.3528 28.1709 16.1464 32.3772 10.9576 32.3772Z" fill="#2F9EA5"/>
<path fill-rule="evenodd" clip-rule="evenodd" d="M42.397 22.9821C42.397 28.8613 47.163 33.6272 53.0422 33.6272C58.9212 33.6272 63.6873 28.8613 63.6873 22.9821C63.6873 17.1029 58.9212 12.337 53.0422 12.337C47.163 12.337 42.397 17.1029 42.397 22.9821ZM53.0422 32.3772C47.8534 32.3772 43.647 28.1709 43.647 22.9821C43.647 17.7933 47.8534 13.587 53.0422 13.587C58.2309 13.587 62.4373 17.7933 62.4373 22.9821C62.4373 28.1709 58.2309 32.3772 53.0422 32.3772Z" fill="#2F9EA5"/>
<path fill-rule="evenodd" clip-rule="evenodd" d="M32.3214 16.5037L31.9999 15.9678L31.6783 16.5037C31.8762 16.6225 32.1235 16.6225 32.3214 16.5037ZM31.9999 6.93904C31.4292 6.55569 30.7428 6.32468 29.9959 6.32468C27.9905 6.32468 26.3647 7.95035 26.3647 9.95567C26.3647 10.8781 26.7466 11.7511 27.2525 12.51C27.7616 13.2735 28.4287 13.9704 29.0767 14.5536C29.7272 15.139 30.375 15.6246 30.8586 15.9631C31.101 16.1328 31.3036 16.2666 31.4466 16.3585C31.5181 16.4045 31.5748 16.44 31.6143 16.4645C31.634 16.4767 31.6494 16.4861 31.6601 16.4927L31.6728 16.5004L31.6765 16.5026L31.678 16.5035C31.6782 16.5036 31.6783 16.5037 31.9999 15.9678C32.3214 16.5037 32.3215 16.5036 32.3217 16.5035L32.3233 16.5026L32.3269 16.5004L32.3396 16.4927C32.3503 16.4861 32.3657 16.4767 32.3855 16.4645C32.4249 16.44 32.4816 16.4045 32.5531 16.3585C32.6961 16.2666 32.8987 16.1328 33.1411 15.9631C33.6248 15.6246 34.2725 15.139 34.923 14.5536C35.571 13.9704 36.2381 13.2735 36.7472 12.51C37.2531 11.7511 37.635 10.8781 37.635 9.95567C37.635 7.95035 36.0093 6.32468 34.0038 6.32468C33.2569 6.32468 32.5705 6.55569 31.9999 6.93904ZM31.9999 15.2272C31.8832 15.1506 31.7393 15.0538 31.5754 14.9391C31.1197 14.6201 30.5149 14.1662 29.9129 13.6245C29.3084 13.0804 28.723 12.4621 28.2926 11.8166C27.8591 11.1663 27.6147 10.5363 27.6147 9.95567C27.6147 8.64074 28.6808 7.57468 29.9959 7.57468C30.6027 7.57468 31.1543 7.80933 31.5816 8.19418C31.8193 8.40834 32.1804 8.40834 32.4182 8.19418C32.8454 7.80933 33.397 7.57468 34.0038 7.57468C35.3189 7.57468 36.385 8.64074 36.385 9.95567C36.385 10.5363 36.1406 11.1663 35.7071 11.8166C35.2768 12.4621 34.6913 13.0804 34.0868 13.6245C33.4848 14.1662 32.88 14.6201 32.4243 14.9391C32.2604 15.0538 32.1165 15.1506 31.9999 15.2272Z" fill="#2F9EA5"/>
<path fill-rule="evenodd" clip-rule="evenodd" d="M56.3926 27.4748C56.7275 27.3911 56.9311 27.0518 56.8474 26.7169L55.4304 21.0487C55.3744 20.8248 55.1995 20.6499 54.9756 20.5939L49.3074 19.1768C48.9725 19.0931 48.6332 19.2967 48.5494 19.6316C48.4657 19.9664 48.6693 20.3058 49.0042 20.3895L54.3086 21.7157L55.6347 27.0201C55.7184 27.355 56.0577 27.5586 56.3926 27.4748Z" fill="#2F9EA5"/>
<path fill-rule="evenodd" clip-rule="evenodd" d="M51.4789 28.1699C51.8064 28.0608 51.9834 27.7068 51.8742 27.3793L51.1657 25.2537C51.1035 25.0671 50.9571 24.9206 50.7704 24.8584L48.6448 24.1499C48.3174 24.0408 47.9634 24.2178 47.8543 24.5452C47.7451 24.8727 47.9221 25.2266 48.2496 25.3358L50.0787 25.9455L50.6884 27.7746C50.7975 28.1021 51.1515 28.2791 51.4789 28.1699Z" fill="#2F9EA5"/>
<path fill-rule="evenodd" clip-rule="evenodd" d="M50.1308 25.8934C50.3749 26.1374 50.7706 26.1374 51.0147 25.8934L57.3914 19.5166C57.6355 19.2725 57.6355 18.8768 57.3914 18.6327C57.1473 18.3887 56.7516 18.3887 56.5075 18.6327L50.1308 25.0095C49.8867 25.2536 49.8867 25.6493 50.1308 25.8934Z" fill="#2F9EA5"/>
</g>
</g>
<defs>
<clipPath id="clip0_33_814">
<rect width="64" height="64" fill="white"/>
</clipPath>
</defs>
</svg>
