<svg width="64" height="64" viewBox="0 0 64 64" fill="none" xmlns="http://www.w3.org/2000/svg">
<g clip-path="url(#clip0_33_835)">
<mask id="mask0_33_835" style="mask-type:luminance" maskUnits="userSpaceOnUse" x="0" y="0" width="64" height="64">
<path d="M0 0.000190735H63.9998V64H0V0.000190735Z" fill="white"/>
</mask>
<g mask="url(#mask0_33_835)">
<path fill-rule="evenodd" clip-rule="evenodd" d="M9.33057 48.0323C9.33057 50.591 11.4049 52.6653 13.9636 52.6653C16.5223 52.6653 18.5967 50.591 18.5967 48.0323C18.5967 45.4735 16.5223 43.3992 13.9636 43.3992C11.4049 43.3992 9.33057 45.4735 9.33057 48.0323ZM13.9636 51.4153C12.0952 51.4153 10.5806 49.9006 10.5806 48.0323C10.5806 46.1638 12.0953 44.6492 13.9636 44.6492C15.832 44.6492 17.3467 46.1639 17.3467 48.0323C17.3467 49.9006 15.832 51.4153 13.9636 51.4153Z" fill="#2F9EA5"/>
<path fill-rule="evenodd" clip-rule="evenodd" d="M50.4131 48.0323C50.4131 50.591 52.4874 52.6653 55.0462 52.6653C57.6049 52.6653 59.6792 50.591 59.6792 48.0323C59.6792 45.4735 57.6049 43.3992 55.0462 43.3992C52.4874 43.3992 50.4131 45.4735 50.4131 48.0323ZM55.0462 51.4153C53.1777 51.4153 51.6631 49.9006 51.6631 48.0323C51.6631 46.1639 53.1778 44.6492 55.0462 44.6492C56.9145 44.6492 58.4292 46.1638 58.4292 48.0323C58.4292 49.9006 56.9145 51.4153 55.0462 51.4153Z" fill="#2F9EA5"/>
<path fill-rule="evenodd" clip-rule="evenodd" d="M13.3387 48.0322C13.3387 48.3774 13.6185 48.6572 13.9637 48.6572H13.9738C14.319 48.6572 14.5988 48.3774 14.5988 48.0322C14.5988 47.687 14.319 47.4072 13.9738 47.4072H13.9637C13.6185 47.4072 13.3387 47.687 13.3387 48.0322Z" fill="#355355"/>
<path fill-rule="evenodd" clip-rule="evenodd" d="M54.4211 48.0322C54.4211 48.3774 54.701 48.6572 55.0461 48.6572H55.0561C55.4013 48.6572 55.6811 48.3774 55.6811 48.0322C55.6811 47.687 55.4013 47.4072 55.0561 47.4072H55.0461C54.701 47.4072 54.4211 47.687 54.4211 48.0322Z" fill="#355355"/>
<path fill-rule="evenodd" clip-rule="evenodd" d="M46.405 48.0322C46.405 48.3774 46.6849 48.6572 47.03 48.6572H51.0381C51.3833 48.6572 51.6631 48.3774 51.6631 48.0322C51.6631 47.687 51.3833 47.4072 51.0381 47.4072H47.655V28.9939C47.655 28.9444 47.6648 28.8954 47.6837 28.8496C47.7027 28.8039 47.7305 28.7623 47.7655 28.7273C47.8005 28.6923 47.842 28.6645 47.8878 28.6456C47.9335 28.6267 47.9826 28.6169 48.0321 28.6169H54.6914C54.967 28.6169 55.2363 28.6995 55.4645 28.854C55.6928 29.0085 55.8695 29.2279 55.9718 29.4838L59.4759 38.2441C59.6041 38.5646 59.9679 38.7205 60.2884 38.5923C60.6088 38.4641 60.7647 38.1004 60.6365 37.7799L57.1324 29.0195C56.9373 28.5317 56.6004 28.1135 56.1653 27.8189C55.7302 27.5243 55.2168 27.3669 54.6914 27.3669H48.0322C48.0322 27.3669 48.0323 27.3669 48.0322 27.3669C47.8186 27.3669 47.6069 27.409 47.4095 27.4907C47.2121 27.5725 47.0327 27.6923 46.8816 27.8434C46.7305 27.9945 46.6107 28.1738 46.5289 28.3712C46.4471 28.5686 46.405 28.7802 46.405 28.9939V48.0322Z" fill="#2F9EA5"/>
<path fill-rule="evenodd" clip-rule="evenodd" d="M58.4292 48.0322C58.4292 48.3774 58.709 48.6572 59.0542 48.6572H61.0582C62.5103 48.6572 63.6872 47.4801 63.6872 46.0281V40.0161C63.6872 38.5643 62.5103 37.387 61.0582 37.387H52.0401C51.9906 37.387 51.9415 37.3773 51.8958 37.3583C51.8501 37.3394 51.8085 37.3116 51.7735 37.2766C51.7385 37.2416 51.7107 37.2 51.6918 37.1543C51.6728 37.1085 51.6631 37.0595 51.6631 37.01V33.002C51.6631 32.9525 51.6728 32.9035 51.6918 32.8578C51.7107 32.812 51.7385 32.7705 51.7735 32.7354C51.8085 32.7004 51.8501 32.6727 51.8958 32.6537C51.9415 32.6348 51.9906 32.625 52.0401 32.625H57.3019C57.6471 32.625 57.9269 32.3452 57.9269 32C57.9269 31.6548 57.6471 31.375 57.3019 31.375H52.0401C51.8264 31.375 51.6149 31.4171 51.4175 31.4989C51.2201 31.5806 51.0407 31.7005 50.8896 31.8516C50.7385 32.0026 50.6187 32.182 50.5369 32.3794C50.4552 32.5768 50.4131 32.7884 50.4131 33.002V37.01C50.4131 37.2237 50.4552 37.4352 50.5369 37.6326C50.6187 37.83 50.7385 38.0094 50.8896 38.1605C51.0407 38.3115 51.2201 38.4314 51.4175 38.5132C51.6149 38.5949 51.8264 38.637 52.0401 38.637H61.0582C61.8198 38.637 62.4372 39.2545 62.4372 40.0161V46.0281C62.4372 46.7899 61.8198 47.4072 61.0582 47.4072H59.0542C58.709 47.4072 58.4292 47.687 58.4292 48.0322Z" fill="#2F9EA5"/>
<path fill-rule="evenodd" clip-rule="evenodd" d="M30.3729 48.0322C30.3729 48.3774 30.6527 48.6572 30.9979 48.6572H47.0301C47.3753 48.6572 47.6551 48.3774 47.6551 48.0322C47.6551 47.687 47.3753 47.4072 47.0301 47.4072H30.9979C30.6527 47.4072 30.3729 47.687 30.3729 48.0322Z" fill="#2F9EA5"/>
<path fill-rule="evenodd" clip-rule="evenodd" d="M3.32079 48.5334C3.5182 48.6151 3.72979 48.6572 3.94346 48.6572H9.95557C10.3007 48.6572 10.5806 48.3774 10.5806 48.0322C10.5806 47.687 10.3007 47.4072 9.95557 47.4072H3.94346C3.89395 47.4072 3.84493 47.3975 3.79918 47.3785C3.75344 47.3596 3.71188 47.3318 3.67687 47.2968C3.64186 47.2618 3.61409 47.2202 3.59515 47.1745C3.57621 47.1287 3.56646 47.0797 3.56647 47.0302V41.0181C3.56647 40.9686 3.57622 40.9196 3.59516 40.8739C3.61411 40.8281 3.64188 40.7866 3.67689 40.7515C3.71189 40.7165 3.75345 40.6888 3.79919 40.6698C3.84493 40.6509 3.89396 40.6411 3.94346 40.6411H47.0301C47.3753 40.6411 47.6551 40.3613 47.6551 40.0161C47.6551 39.6709 47.3753 39.3911 47.0301 39.3911H3.94346C3.7298 39.3911 3.51824 39.4332 3.32084 39.515C3.12344 39.5967 2.94408 39.7166 2.793 39.8677C2.64192 40.0187 2.52208 40.1981 2.44031 40.3955C2.35855 40.5929 2.31647 40.8045 2.31647 41.0181V47.03C2.31647 47.0301 2.31647 47.03 2.31647 47.03C2.31645 47.2437 2.35851 47.4553 2.44026 47.6527C2.52201 47.8501 2.64185 48.0295 2.79293 48.1806C2.94402 48.3317 3.12338 48.4516 3.32079 48.5334Z" fill="#2F9EA5"/>
<path fill-rule="evenodd" clip-rule="evenodd" d="M0.789036 36.1565C1.09416 36.4616 1.50799 36.6331 1.9395 36.6331H42.02C42.4515 36.6331 42.8653 36.4616 43.1705 36.1565C43.4756 35.8514 43.647 35.4376 43.647 35.0061V12.9618C43.647 12.5302 43.4756 12.1164 43.1705 11.8113C42.8653 11.5062 42.4515 11.3348 42.02 11.3348H1.9395C1.50799 11.3348 1.09416 11.5062 0.789036 11.8113C0.483915 12.1164 0.3125 12.5302 0.3125 12.9618V35.0061C0.3125 35.4376 0.483915 35.8514 0.789036 36.1565ZM1.9395 35.3831C1.83951 35.3831 1.74362 35.3433 1.67292 35.2726C1.60222 35.2019 1.5625 35.106 1.5625 35.0061V12.9618C1.5625 12.8618 1.60222 12.7659 1.67292 12.6952C1.74362 12.6245 1.83951 12.5848 1.9395 12.5848H42.02C42.12 12.5848 42.2159 12.6245 42.2866 12.6952C42.3573 12.7659 42.397 12.8618 42.397 12.9618V35.0061C42.397 35.106 42.3573 35.2019 42.2866 35.2726C42.2159 35.3433 42.12 35.3831 42.02 35.3831H1.9395Z" fill="#2F9EA5"/>
<path fill-rule="evenodd" clip-rule="evenodd" d="M4.94556 40.6411C5.29073 40.6411 5.57056 40.3613 5.57056 40.0161V36.0081C5.57056 35.6629 5.29073 35.3831 4.94556 35.3831C4.60038 35.3831 4.32056 35.6629 4.32056 36.0081V40.0161C4.32056 40.3613 4.60038 40.6411 4.94556 40.6411Z" fill="#2F9EA5"/>
<path fill-rule="evenodd" clip-rule="evenodd" d="M42.397 29.9958C42.397 30.341 42.6768 30.6208 43.022 30.6208H47.03C47.3751 30.6208 47.655 30.341 47.655 29.9958C47.655 29.6507 47.3751 29.3708 47.03 29.3708H43.022C42.6768 29.3708 42.397 29.6507 42.397 29.9958Z" fill="#2F9EA5"/>
<path fill-rule="evenodd" clip-rule="evenodd" d="M22.3591 48.5334C22.5565 48.6151 22.7681 48.6572 22.9817 48.6572H30.9978C31.2115 48.6572 31.4231 48.6151 31.6205 48.5334C31.8179 48.4516 31.9973 48.3317 32.1484 48.1806C32.2994 48.0295 32.4193 47.8501 32.501 47.6527C32.5828 47.4553 32.6248 47.2438 32.6248 47.0301C32.6248 47.0301 32.6248 47.0301 32.6248 47.0301V45.0261C32.6248 44.5946 32.4534 44.1808 32.1483 43.8756C31.8432 43.5705 31.4293 43.3991 30.9978 43.3991H22.9817C22.5502 43.3991 22.1364 43.5705 21.8313 43.8756C21.5262 44.1808 21.3547 44.5946 21.3547 45.0261V47.03C21.3547 47.0301 21.3547 47.03 21.3547 47.03C21.3547 47.2437 21.3968 47.4553 21.4785 47.6527C21.5603 47.8501 21.6801 48.0295 21.8312 48.1806C21.9823 48.3317 22.1617 48.4516 22.3591 48.5334ZM22.9817 47.4072C22.9322 47.4072 22.8832 47.3975 22.8375 47.3785C22.7917 47.3596 22.7501 47.3318 22.7151 47.2968C22.6801 47.2618 22.6524 47.2202 22.6334 47.1745C22.6145 47.1287 22.6047 47.0797 22.6047 47.0302V45.0261C22.6047 44.9261 22.6445 44.8302 22.7152 44.7595C22.7859 44.6888 22.8817 44.6491 22.9817 44.6491H30.9978C31.0978 44.6491 31.1937 44.6888 31.2644 44.7595C31.3351 44.8302 31.3748 44.9261 31.3748 45.0261V47.0301C31.3748 47.0796 31.3651 47.1287 31.3461 47.1745C31.3272 47.2202 31.2994 47.2618 31.2644 47.2968C31.2294 47.3318 31.1879 47.3596 31.1421 47.3785C31.0964 47.3975 31.0473 47.4072 30.9978 47.4072H22.9817Z" fill="#2F9EA5"/>
<path fill-rule="evenodd" clip-rule="evenodd" d="M40.536 36.3549C40.7275 36.0677 40.6499 35.6797 40.3627 35.4882L30.6981 29.0451C29.9005 28.5134 28.9577 28.2421 27.9995 28.2687C27.0414 28.2953 26.1151 28.6185 25.3483 29.1936C25.3483 29.1936 25.3483 29.1936 25.3483 29.1936L24.6336 29.7296L24.6335 29.7296C24.423 29.8875 24.1716 29.9819 23.9092 30.0016C23.6467 30.0212 23.3841 29.9654 23.1523 29.8406L22.856 30.3909L23.1523 29.8406L13.2612 24.5146L13.2612 24.5146C12.554 24.1338 11.76 23.9434 10.957 23.9621C10.1541 23.9808 9.36975 24.2079 8.68102 24.6211L8.68101 24.6211L0.61591 29.4602C0.319923 29.6378 0.223947 30.0217 0.401541 30.3177C0.579135 30.6137 0.963048 30.7097 1.25903 30.5321L9.32412 25.693C9.32413 25.693 9.32413 25.6929 9.32414 25.6929C9.82705 25.3912 10.3998 25.2254 10.9861 25.2118C11.5724 25.1981 12.1522 25.3372 12.6686 25.6152L22.5597 30.9412C23.0015 31.1791 23.5022 31.2856 24.0025 31.2481C24.5029 31.2106 24.9821 31.0307 25.3835 30.7296C25.3835 30.7296 25.3835 30.7296 25.3835 30.7296L26.0982 30.1936L26.0983 30.1936C26.6582 29.7736 27.3346 29.5377 28.0342 29.5183C28.7339 29.4988 29.4223 29.6969 30.0047 30.0852L30.3299 29.5973L30.0047 30.0852L39.6693 36.5283C39.9565 36.7197 40.3445 36.6421 40.536 36.3549Z" fill="#355355"/>
<path fill-rule="evenodd" clip-rule="evenodd" d="M19.8163 29.1042C20.0127 29.388 20.4021 29.4588 20.6859 29.2623L31.637 21.6809L31.637 21.6808C32.0369 21.4039 32.5121 21.2562 32.9985 21.2574C33.4849 21.2586 33.9593 21.4088 34.3578 21.6878C34.3578 21.6878 34.3578 21.6878 34.3578 21.6878L42.6635 27.5019C42.9463 27.6998 43.336 27.6311 43.534 27.3483C43.7319 27.0655 43.6631 26.6758 43.3804 26.4778L35.0746 20.6637L35.0746 20.6637C34.4669 20.2383 33.7435 20.0093 33.0017 20.0074C32.2599 20.0055 31.5353 20.2309 30.9255 20.6531C30.9255 20.6531 30.9254 20.6531 30.9254 20.6532L19.9744 28.2346C19.6906 28.4311 19.6198 28.8204 19.8163 29.1042Z" fill="#355355"/>
<path fill-rule="evenodd" clip-rule="evenodd" d="M14.3407 19.9759C14.3407 21.9813 15.9664 23.6069 17.9718 23.6069C19.9771 23.6069 21.6028 21.9812 21.6028 19.9759C21.6028 17.9705 19.9771 16.345 17.9718 16.345C15.9664 16.345 14.3407 17.9705 14.3407 19.9759ZM17.9718 22.3569C16.6567 22.3569 15.5907 21.2909 15.5907 19.9759C15.5907 18.6609 16.6567 17.595 17.9718 17.595C19.2868 17.595 20.3528 18.6609 20.3528 19.9759C20.3528 21.2909 19.2868 22.3569 17.9718 22.3569Z" fill="#355355"/>
<path fill-rule="evenodd" clip-rule="evenodd" d="M60.4333 42.0203C60.4333 42.3654 60.7132 42.6453 61.0583 42.6453H63.0623C63.4075 42.6453 63.6873 42.3654 63.6873 42.0203C63.6873 41.6751 63.4075 41.3953 63.0623 41.3953H61.0583C60.7132 41.3953 60.4333 41.6751 60.4333 42.0203Z" fill="#2F9EA5"/>
</g>
</g>
<defs>
<clipPath id="clip0_33_835">
<rect width="64" height="64" fill="white"/>
</clipPath>
</defs>
</svg>
