<svg width="64" height="64" viewBox="0 0 64 64" fill="none" xmlns="http://www.w3.org/2000/svg">
<g clip-path="url(#clip0_33_855)">
<mask id="mask0_33_855" style="mask-type:luminance" maskUnits="userSpaceOnUse" x="0" y="0" width="64" height="64">
<path d="M0 0.000190735H63.9998V64H0V0.000190735Z" fill="white"/>
</mask>
<g mask="url(#mask0_33_855)">
<path fill-rule="evenodd" clip-rule="evenodd" d="M0.3125 56.0485C0.3125 57.5004 1.48957 58.6775 2.9415 58.6775H61.0583C62.5102 58.6775 63.6873 57.5004 63.6873 56.0485V25.4871C63.6873 25.1419 63.4075 24.8621 63.0623 24.8621C62.7171 24.8621 62.4373 25.1419 62.4373 25.4871V56.0485C62.4373 56.8101 61.8199 57.4275 61.0583 57.4275H2.9415C2.17993 57.4275 1.5625 56.8101 1.5625 56.0485V25.4871C1.5625 25.1419 1.28268 24.8621 0.9375 24.8621C0.592322 24.8621 0.3125 25.1419 0.3125 25.4871V56.0485Z" fill="#2F9EA5"/>
<path fill-rule="evenodd" clip-rule="evenodd" d="M24.2672 41.2889C24.4476 40.9946 24.3552 40.6098 24.0609 40.4294L2.5456 27.2426C2.24524 27.0585 1.99711 26.8005 1.82498 26.4931C1.65286 26.1857 1.56247 25.8393 1.56247 25.487C1.56247 25.1348 1.65286 24.7884 1.82498 24.481C1.99711 24.1736 2.24522 23.9156 2.54558 23.7315L11.2842 18.3755C11.5785 18.1951 11.6709 17.8103 11.4905 17.516C11.3101 17.2217 10.9253 17.1294 10.631 17.3098L1.89242 22.6657C1.89241 22.6657 1.89243 22.6657 1.89242 22.6657C1.40972 22.9616 1.01097 23.3763 0.734352 23.8703C0.457729 24.3642 0.312469 24.9209 0.312469 25.487C0.312469 26.0532 0.457729 26.6099 0.734352 27.1038C1.01097 27.5978 1.4097 28.0125 1.8924 28.3084C1.89241 28.3084 1.89239 28.3083 1.8924 28.3084L23.4077 41.4952C23.702 41.6756 24.0868 41.5832 24.2672 41.2889Z" fill="#2F9EA5"/>
<path fill-rule="evenodd" clip-rule="evenodd" d="M18.3881 13.2884C18.5684 13.5827 18.9532 13.6751 19.2475 13.4947L26.5666 9.00871C29.9006 6.96531 34.0991 6.9653 37.433 9.0087C37.433 9.00871 37.433 9.00871 37.433 9.00871L38.2126 9.48658C38.5069 9.66696 38.8917 9.57463 39.0721 9.28033C39.2525 8.98604 39.1602 8.60124 38.8659 8.42085L38.0862 7.94298L38.0862 7.94296C34.3514 5.65389 29.6482 5.65389 25.9134 7.94296L26.24 8.47584L25.9134 7.94297L18.5943 12.429C18.3 12.6093 18.2077 12.9941 18.3881 13.2884Z" fill="#2F9EA5"/>
<path fill-rule="evenodd" clip-rule="evenodd" d="M39.6503 41.3392C39.8306 41.6335 40.2154 41.7259 40.5097 41.5455L62.1074 28.3082C62.5901 28.0123 62.9888 27.5976 63.2655 27.1036C63.5421 26.6097 63.6874 26.053 63.6874 25.4868C63.6874 24.9207 63.5421 24.364 63.2655 23.87C62.9888 23.3761 62.5901 22.9613 62.1074 22.6655L51.3647 16.0814C51.0704 15.9011 50.6856 15.9934 50.5052 16.2877C50.3248 16.582 50.4172 16.9668 50.7115 17.1472L61.4542 23.7313L61.4542 23.7313C61.7546 23.9154 62.0027 24.1734 62.1748 24.4808C62.347 24.7882 62.4374 25.1346 62.4374 25.4868C62.4374 25.8391 62.347 26.1855 62.1748 26.4929C62.0027 26.8002 61.7546 27.0583 61.4542 27.2424L61.4542 27.2424L39.8565 40.4797C39.5622 40.6601 39.4699 41.0449 39.6503 41.3392Z" fill="#2F9EA5"/>
<path fill-rule="evenodd" clip-rule="evenodd" d="M0.404621 55.3729C0.584998 55.6672 0.969799 55.7596 1.2641 55.5792L26.5668 40.0711L26.2402 39.5382L26.5668 40.0711C29.9006 38.0277 34.0992 38.0277 37.433 40.0711L37.7596 39.5382L37.433 40.0711L62.7357 55.5792C63.03 55.7596 63.4148 55.6672 63.5952 55.3729C63.7756 55.0786 63.6832 54.6938 63.3889 54.5134L38.0862 39.0053C34.3516 36.7163 29.6482 36.7163 25.9136 39.0053L0.610896 54.5134C0.316597 54.6938 0.224245 55.0786 0.404621 55.3729Z" fill="#2F9EA5"/>
<path fill-rule="evenodd" clip-rule="evenodd" d="M41.395 29.4949C41.395 31.2236 42.7964 32.625 44.5251 32.625C46.2537 32.625 47.6551 31.2235 47.6551 29.4949V8.45257C47.6551 6.72402 46.2537 5.32258 44.5251 5.32258C42.7965 5.32258 41.395 6.724 41.395 8.45257V10.9577C41.395 11.3029 41.6748 11.5827 42.02 11.5827C42.3652 11.5827 42.645 11.3029 42.645 10.9577V8.45257C42.645 7.4144 43.4868 6.57258 44.5251 6.57258C45.5633 6.57258 46.4051 7.41438 46.4051 8.45257V29.4949C46.4051 30.5332 45.5633 31.375 44.5251 31.375C43.4868 31.375 42.645 30.5332 42.645 29.4949V14.9657C42.645 14.6205 42.3652 14.3407 42.02 14.3407C41.6748 14.3407 41.395 14.6205 41.395 14.9657V29.4949Z" fill="#355355"/>
<path fill-rule="evenodd" clip-rule="evenodd" d="M42.6196 30.1725C42.717 29.8414 42.5275 29.494 42.1964 29.3966L25.6108 24.5184V13.4296L42.1964 8.55147C42.5275 8.45407 42.717 8.10666 42.6196 7.77551C42.5222 7.44436 42.1748 7.25486 41.8437 7.35226L24.8095 12.3624C24.5435 12.4406 24.3608 12.6847 24.3608 12.962V24.9861C24.3608 25.2633 24.5435 25.5074 24.8095 25.5857L41.8437 30.5958C42.1748 30.6932 42.5222 30.5037 42.6196 30.1725Z" fill="#355355"/>
<path fill-rule="evenodd" clip-rule="evenodd" d="M14.3406 21.98C14.3406 23.9854 15.9663 25.6111 17.9717 25.6111H24.9858C25.331 25.6111 25.6108 25.3313 25.6108 24.9861C25.6108 24.6409 25.331 24.3611 24.9858 24.3611H17.9717C16.6566 24.3611 15.5906 23.295 15.5906 21.98V15.968C15.5906 14.6529 16.6566 13.5869 17.9717 13.5869H24.9858C25.331 13.5869 25.6108 13.307 25.6108 12.9619C25.6108 12.6167 25.331 12.3369 24.9858 12.3369H17.9717C15.9663 12.3369 14.3406 13.9626 14.3406 15.968V21.98Z" fill="#355355"/>
<path fill-rule="evenodd" clip-rule="evenodd" d="M25.356 40.4857C25.6752 40.3543 25.8274 39.989 25.696 39.6698L19.5518 24.748C19.4203 24.4288 19.055 24.2766 18.7359 24.408C18.4167 24.5395 18.2645 24.9047 18.3959 25.2239L24.5401 40.1458C24.6716 40.4649 25.0368 40.6171 25.356 40.4857Z" fill="#355355"/>
<path fill-rule="evenodd" clip-rule="evenodd" d="M30.4424 38.2377C30.7615 38.1062 30.9138 37.741 30.7823 37.4218L25.5637 24.7481C25.4323 24.4289 25.067 24.2767 24.7478 24.4081C24.4286 24.5395 24.2764 24.9048 24.4079 25.224L29.6265 37.8977C29.7579 38.2169 30.1232 38.3691 30.4424 38.2377Z" fill="#355355"/>
</g>
</g>
<defs>
<clipPath id="clip0_33_855">
<rect width="64" height="64" fill="white"/>
</clipPath>
</defs>
</svg>
