<svg width="12" height="16" viewBox="0 0 12 16" fill="none" xmlns="http://www.w3.org/2000/svg">
<path d="M10.25 6C11.1875 6 12 6.8125 12 7.75V12.0625C11.9688 14.25 10.0938 16 7.84375 16H5.125C4.40625 16 3.71875 15.8438 3.125 15.5L1.21875 14.4375C0.46875 14.0312 0 13.25 0 12.375V10.5C0 9.6875 0.375 8.96875 1 8.5V1.75C1 0.8125 1.78125 0 2.75 0C3.6875 0 4.5 0.8125 4.5 1.75V4.1875C4.71875 4.0625 4.96875 4 5.25 4C6 4 6.6875 4.53125 6.90625 5.21875C7.15625 5.09375 7.4375 5 7.75 5C8.5 5 9.1875 5.53125 9.40625 6.21875C9.65625 6.09375 9.9375 6 10.25 6ZM7 6.75V8.75C7 9.1875 7.3125 9.5 7.75 9.5C8.15625 9.5 8.5 9.1875 8.5 8.75V6.75C8.5 6.34375 8.15625 6 7.75 6C7.3125 6 7 6.34375 7 6.75ZM4.5 5.75V8H5C5.34375 8 5.6875 8.125 6 8.28125V5.75C6 5.34375 5.65625 5 5.25 5C4.8125 5 4.5 5.34375 4.5 5.75ZM2 1.75V8.0625C2.15625 8.03125 2.3125 8 2.5 8H3.5V1.75C3.5 1.34375 3.15625 1 2.75 1C2.3125 1 2 1.34375 2 1.75ZM11 12V11.0938C10.75 11.1875 10.5 11.25 10.25 11.25C9.53125 11.25 8.9375 10.8438 8.65625 10.25C8.375 10.4062 8.0625 10.5 7.75 10.5C7.4375 10.5 7.1875 10.4375 6.96875 10.3125C6.8125 11.2812 5.96875 12 5 12H3.5C3.21875 12 3 11.7812 3 11.5C3 11.25 3.21875 11 3.5 11H5C5.53125 11 6 10.5625 6 10C6 9.46875 5.53125 9 5 9H2.5C1.65625 9 1 9.6875 1 10.5V12.375C1 12.875 1.25 13.3438 1.6875 13.5625L3.59375 14.625C4.0625 14.875 4.59375 15 5.125 15H7.84375C9.5 15 11 13.7188 11 12ZM11 9.5V7.75C11 7.34375 10.6562 7 10.25 7C9.8125 7 9.5 7.34375 9.5 7.75V9.5C9.5 9.9375 9.8125 10.25 10.25 10.25C10.6562 10.25 11 9.9375 11 9.5Z" fill="#FEFEFE"/>
</svg>
