<svg width="64" height="64" viewBox="0 0 64 64" fill="none" xmlns="http://www.w3.org/2000/svg">
<path fill-rule="evenodd" clip-rule="evenodd" d="M10.5157 37.4519C10.7597 37.696 11.1555 37.696 11.3996 37.452L24.0108 24.8409C24.5491 24.3024 25.4223 24.3023 25.961 24.8409L37.155 36.035C38.1817 37.0615 39.8462 37.0615 40.8729 36.035L46.0549 30.853C46.5935 30.3144 47.4666 30.3144 48.0052 30.853L52.6003 35.448C52.8444 35.692 53.2401 35.692 53.4842 35.448C53.7283 35.2039 53.7283 34.8081 53.4842 34.5641L48.8891 29.9691C47.8624 28.9424 46.1978 28.9424 45.1711 29.9691L39.9891 35.151C39.9891 35.151 39.9891 35.151 39.9891 35.151C39.4506 35.6895 38.5774 35.6895 38.0388 35.151L26.8449 23.957C25.8181 22.9304 24.1535 22.9302 23.1269 23.957C23.1269 23.957 23.1269 23.957 23.1269 23.957L10.5157 36.5681C10.2716 36.8121 10.2716 37.2079 10.5157 37.4519Z" fill="#2F9EA5"/>
<path fill-rule="evenodd" clip-rule="evenodd" d="M43.464 33.4439C43.708 33.1998 43.708 32.8041 43.464 32.56L38.368 27.464C37.3413 26.4373 35.6767 26.4373 34.65 27.464L32.56 29.554C32.3159 29.7981 32.3159 30.1938 32.56 30.4379C32.8041 30.682 33.1998 30.682 33.4439 30.4379L35.5339 28.3479C36.0724 27.8094 36.9455 27.8094 37.4841 28.3479L42.5801 33.4439C42.8242 33.688 43.2199 33.688 43.464 33.4439Z" fill="#2F9EA5"/>
<path fill-rule="evenodd" clip-rule="evenodd" d="M51.4802 55.4883C51.7243 55.2442 51.7243 54.8485 51.4802 54.6044L39.871 42.9954C39.871 42.9954 39.871 42.9954 39.871 42.9954C38.8443 41.9686 37.1797 41.9685 36.153 42.9953C36.153 42.9954 36.153 42.9953 36.153 42.9953L33.977 45.1712C33.4386 45.7097 32.5653 45.7098 32.0269 45.1713L24.8408 37.9852C23.8141 36.9585 22.1495 36.9585 21.1228 37.9852L10.5157 48.5923C10.2716 48.8364 10.2716 49.2321 10.5157 49.4762C10.7597 49.7203 11.1555 49.7203 11.3996 49.4762L22.0066 38.8691C22.5452 38.3306 23.4183 38.3306 23.9569 38.8691L31.1429 46.0551C31.143 46.0551 31.1429 46.0551 31.1429 46.0551C32.1695 47.0818 33.8343 47.0818 34.8608 46.0551C34.8609 46.0551 34.8608 46.0551 34.8608 46.0551L37.0368 43.8793C37.5754 43.3406 38.4485 43.3406 38.987 43.8792L50.5963 55.4883C50.8404 55.7324 51.2361 55.7324 51.4802 55.4883Z" fill="#2F9EA5"/>
<path fill-rule="evenodd" clip-rule="evenodd" d="M27.3669 15.9677C27.3669 18.5265 29.4413 20.6008 32.0001 20.6008C34.5587 20.6008 36.633 18.5265 36.633 15.9677C36.633 13.409 34.5587 11.3347 32.0001 11.3347C29.4413 11.3347 27.3669 13.409 27.3669 15.9677ZM32.0001 19.3508C30.1316 19.3508 28.6169 17.8362 28.6169 15.9677C28.6169 14.0994 30.1316 12.5847 32.0001 12.5847C33.8684 12.5847 35.383 14.0994 35.383 15.9677C35.383 17.8362 33.8684 19.3508 32.0001 19.3508Z" fill="#2F9EA5"/>
<path fill-rule="evenodd" clip-rule="evenodd" d="M8.80515 61.2068C9.11027 61.5119 9.5241 61.6833 9.95561 61.6833H14.9657C15.3109 61.6833 15.5907 61.4035 15.5907 61.0583C15.5907 60.7132 15.3109 60.4333 14.9657 60.4333H9.95561C9.85562 60.4333 9.75973 60.3936 9.68903 60.3229C9.61833 60.2522 9.57861 60.1563 9.57861 60.0564V56.0482C9.57861 55.9483 9.61833 55.8524 9.68903 55.7817C9.75973 55.711 9.85562 55.6712 9.95561 55.6712H54.0442C54.0937 55.6712 54.1428 55.681 54.1886 55.6999C54.2343 55.7189 54.2759 55.7466 54.3109 55.7816C54.3459 55.8167 54.3737 55.8582 54.3927 55.904C54.4116 55.9497 54.4213 55.9987 54.4213 56.0482V60.0564C54.4213 60.1059 54.4116 60.1549 54.3927 60.2006C54.3737 60.2464 54.3459 60.2879 54.3109 60.3229C54.2759 60.3579 54.2343 60.3857 54.1886 60.4047C54.1428 60.4236 54.0938 60.4334 54.0443 60.4333H49.0342C48.6891 60.4333 48.4092 60.7132 48.4092 61.0583C48.4092 61.4035 48.6891 61.6833 49.0342 61.6833H54.0442C54.0441 61.6833 54.0442 61.6833 54.0442 61.6833C54.2578 61.6834 54.4694 61.6413 54.6668 61.5596C54.8643 61.4778 55.0436 61.358 55.1947 61.2069C55.3458 61.0558 55.4657 60.8764 55.5475 60.679C55.6293 60.4816 55.6713 60.27 55.6713 60.0564V56.0482C55.6713 55.8346 55.6293 55.623 55.5475 55.4256C55.4657 55.2282 55.3458 55.0488 55.1947 54.8977C55.0436 54.7466 54.8643 54.6268 54.6668 54.545C54.4694 54.4633 54.2579 54.4212 54.0442 54.4212C54.0442 54.4212 54.0443 54.4212 54.0442 54.4212H9.95561C9.5241 54.4212 9.11027 54.5927 8.80515 54.8978C8.50003 55.2029 8.32861 55.6167 8.32861 56.0482V60.0564C8.32861 60.4879 8.50003 60.9017 8.80515 61.2068Z" fill="#355355"/>
<path fill-rule="evenodd" clip-rule="evenodd" d="M20.3528 61.0583C20.3528 61.4035 20.6327 61.6833 20.9778 61.6833H39.014C39.3592 61.6833 39.639 61.4035 39.639 61.0583C39.639 60.7132 39.3592 60.4333 39.014 60.4333H20.9778C20.6327 60.4333 20.3528 60.7132 20.3528 61.0583Z" fill="#355355"/>
<path fill-rule="evenodd" clip-rule="evenodd" d="M14.8173 63.211C15.1224 63.5161 15.5362 63.6875 15.9677 63.6875H19.9758C20.4073 63.6875 20.8212 63.5161 21.1263 63.211C21.4314 62.9058 21.6028 62.492 21.6028 62.0605V60.0565C21.6028 59.625 21.4314 59.2112 21.1263 58.906C20.8212 58.6009 20.4073 58.4295 19.9758 58.4295H15.9677C15.5362 58.4295 15.1224 58.6009 14.8173 58.906C14.5121 59.2112 14.3407 59.625 14.3407 60.0565V62.0605C14.3407 62.492 14.5121 62.9058 14.8173 63.211ZM15.9677 62.4375C15.8677 62.4375 15.7718 62.3978 15.7011 62.3271C15.6304 62.2564 15.5907 62.1605 15.5907 62.0605V60.0565C15.5907 59.9565 15.6304 59.8606 15.7011 59.7899C15.7718 59.7192 15.8677 59.6795 15.9677 59.6795H19.9758C20.0758 59.6795 20.1717 59.7192 20.2424 59.7899C20.3131 59.8606 20.3528 59.9565 20.3528 60.0565V62.0605C20.3528 62.1605 20.3131 62.2564 20.2424 62.3271C20.1717 62.3978 20.0758 62.4375 19.9758 62.4375H15.9677Z" fill="#355355"/>
<path fill-rule="evenodd" clip-rule="evenodd" d="M42.8735 63.211C43.1787 63.5161 43.5925 63.6875 44.024 63.6875H48.0321C48.4636 63.6875 48.8775 63.5161 49.1826 63.211C49.4877 62.9058 49.6591 62.492 49.6591 62.0605V60.0565C49.6591 59.625 49.4877 59.2112 49.1826 58.906C48.8775 58.6009 48.4636 58.4295 48.0321 58.4295H44.024C43.5925 58.4295 43.1787 58.6009 42.8735 58.906C42.5684 59.2112 42.397 59.625 42.397 60.0565V62.0605C42.397 62.492 42.5684 62.9058 42.8735 63.211ZM44.024 62.4375C43.924 62.4375 43.8281 62.3978 43.7574 62.3271C43.6867 62.2564 43.647 62.1605 43.647 62.0605V60.0565C43.647 59.9565 43.6867 59.8606 43.7574 59.7899C43.8281 59.7192 43.924 59.6795 44.024 59.6795H48.0321C48.1321 59.6795 48.228 59.7192 48.2987 59.7899C48.3694 59.8606 48.4091 59.9565 48.4091 60.0565V62.0605C48.4091 62.1605 48.3694 62.2564 48.2987 62.3271C48.228 62.3978 48.1321 62.4375 48.0321 62.4375H44.024Z" fill="#355355"/>
<path fill-rule="evenodd" clip-rule="evenodd" d="M10.9577 55.6714C11.3029 55.6714 11.5827 55.3916 11.5827 55.0464V4.94566C11.5827 4.60048 11.3029 4.32066 10.9577 4.32066C10.6126 4.32066 10.3327 4.60048 10.3327 4.94566V55.0464C10.3327 55.3916 10.6126 55.6714 10.9577 55.6714Z" fill="#355355"/>
<path fill-rule="evenodd" clip-rule="evenodd" d="M53.0422 55.6714C53.3874 55.6714 53.6672 55.3916 53.6672 55.0464V4.94566C53.6672 4.60048 53.3874 4.32066 53.0422 4.32066C52.6971 4.32066 52.4172 4.60048 52.4172 4.94566V55.0464C52.4172 55.3916 52.6971 55.6714 53.0422 55.6714Z" fill="#355355"/>
<path fill-rule="evenodd" clip-rule="evenodd" d="M9.95581 5.5708C9.95579 5.5708 9.95584 5.5708 9.95581 5.5708H45.0261C45.3713 5.5708 45.6511 5.29098 45.6511 4.9458C45.6511 4.60062 45.3713 4.3208 45.0261 4.3208H9.95573C9.90622 4.32081 9.85712 4.31106 9.81137 4.29212C9.76563 4.27317 9.72406 4.2454 9.68905 4.2104C9.65403 4.17539 9.62626 4.13383 9.60731 4.08809C9.58837 4.04235 9.57861 3.99332 9.57861 3.9438V1.93981C9.57861 1.89029 9.58837 1.84126 9.60731 1.79553C9.62626 1.74979 9.65403 1.70823 9.68905 1.67322C9.72406 1.63821 9.76563 1.61044 9.81137 1.5915C9.85712 1.57255 9.90614 1.56281 9.95566 1.56281H54.0443C54.1443 1.56281 54.2402 1.60253 54.3109 1.67323C54.3816 1.74393 54.4213 1.83983 54.4213 1.93981V3.9438C54.4213 4.04379 54.3816 4.13968 54.3109 4.21038C54.2402 4.28108 54.1443 4.3208 54.0443 4.3208H49.0342C48.6891 4.3208 48.4092 4.60062 48.4092 4.9458C48.4092 5.29098 48.6891 5.5708 49.0342 5.5708H54.0443C54.4759 5.5708 54.8897 5.39939 55.1948 5.09426C55.4999 4.78914 55.6713 4.37531 55.6713 3.9438V1.93981C55.6713 1.5083 55.4999 1.09447 55.1948 0.789349C54.8897 0.484227 54.4759 0.312813 54.0443 0.312813H9.95581C9.95579 0.312813 9.95584 0.312813 9.95581 0.312813C9.74216 0.312796 9.53052 0.35486 9.33313 0.436602C9.13571 0.518354 8.95632 0.638193 8.80522 0.789277C8.65412 0.940359 8.53426 1.11973 8.45248 1.31714C8.3707 1.51455 8.32861 1.72614 8.32861 1.93981V3.9438C8.32861 4.15747 8.3707 4.36906 8.45248 4.56648C8.53426 4.76389 8.65412 4.94325 8.80522 5.09434C8.95632 5.24542 9.13571 5.36526 9.33313 5.44701C9.53052 5.52875 9.74216 5.57082 9.95581 5.5708Z" fill="#355355"/>
</svg>
