<svg width="50" height="82" viewBox="0 0 50 82" fill="none" xmlns="http://www.w3.org/2000/svg">
<g clip-path="url(#clip0_228_99)">
<path d="M18.005 21.2231L12.0173 13.1577H8.16469V21.2231H4.7902V0.345215H12.4629C13.8647 0.345215 15.1086 0.612526 16.1901 1.15176C17.2716 1.69099 18.1118 2.44222 18.7059 3.41468C19.3 4.38714 19.5971 5.49326 19.5971 6.73764C19.5971 8.10646 19.2351 9.30936 18.5156 10.3417C17.7915 11.3741 16.8075 12.1346 15.5542 12.6185L21.8622 21.2231H18.0097H18.005ZM8.16469 10.185H12.4025C13.5722 10.185 14.482 9.86702 15.1411 9.23562C15.8002 8.60421 16.1298 7.77923 16.1298 6.7699C16.1298 5.76057 15.8002 4.90333 15.1411 4.27192C14.482 3.64052 13.5676 3.32251 12.4025 3.32251H8.16469V10.185Z" fill="#FEFEFE"/>
<path d="M28.5973 20.1495C26.9077 19.2001 25.5756 17.905 24.6008 16.2597C23.6214 14.6143 23.134 12.7892 23.134 10.789C23.134 8.78879 23.6261 6.95909 24.6147 5.31836C25.6034 3.67301 26.9356 2.37793 28.6112 1.42852C30.2869 0.479102 32.1342 0.00439453 34.1534 0.00439453C36.1725 0.00439453 37.9967 0.479102 39.6955 1.42852C41.3944 2.37793 42.7358 3.67301 43.7245 5.31836C44.7131 6.9637 45.2052 8.78879 45.2052 10.789C45.2052 12.7892 44.7131 14.6143 43.7245 16.2597C42.7358 17.905 41.3944 19.2001 39.6955 20.1495C37.9967 21.0989 36.1493 21.5736 34.1534 21.5736C32.1574 21.5736 30.2822 21.0989 28.5926 20.1495H28.5973ZM38.0431 17.5087C39.1896 16.845 40.0947 15.9232 40.7492 14.7388C41.4083 13.5589 41.7378 12.2316 41.7378 10.7521C41.7378 9.27272 41.4083 8.0099 40.7492 6.83005C40.09 5.65019 39.1896 4.72843 38.0431 4.06015C36.8966 3.39648 35.6108 3.06465 34.1905 3.06465C32.7701 3.06465 31.4519 3.39648 30.3054 4.06015C29.1589 4.72382 28.2631 5.64097 27.6133 6.81161C26.9634 7.98225 26.6431 9.29576 26.6431 10.7475C26.6431 12.1993 26.9681 13.5543 27.6133 14.7342C28.2631 15.914 29.1589 16.8358 30.3054 17.5041C31.4519 18.1677 32.7469 18.4996 34.1905 18.4996C35.634 18.4996 36.8966 18.1677 38.0431 17.5041V17.5087Z" fill="#FEFEFE"/>
<path d="M8.97697 69.7728C7.67266 69.0769 6.64686 68.0629 5.90419 66.7356C5.16152 65.4083 4.79019 63.8367 4.79019 62.0208V49.5908H8.16468V62.242C8.16468 64.0118 8.6567 65.376 9.64537 66.3208C10.634 67.2702 11.9012 67.7449 13.4515 67.7449C15.0019 67.7449 16.2319 67.2702 17.2113 66.3208C18.186 65.3714 18.678 64.0118 18.678 62.242V49.5908H22.0572V62.0208C22.0572 63.8367 21.6858 65.4037 20.9432 66.7356C20.2005 68.0629 19.1747 69.0769 17.8704 69.7728C16.5661 70.4687 15.0947 70.8144 13.4562 70.8144C11.8177 70.8144 10.2859 70.4687 8.98161 69.7728H8.97697Z" fill="#FEFEFE"/>
<path d="M27.1166 49.5908H34.7939C36.1957 49.5908 37.4397 49.8581 38.5212 50.3974C39.6027 50.9366 40.4428 51.6878 41.0369 52.6603C41.6311 53.6328 41.9281 54.7389 41.9281 55.9832C41.9281 57.2276 41.6311 58.3337 41.0369 59.3062C40.4428 60.2787 39.6027 61.0345 38.5212 61.583C37.4397 62.1314 36.1957 62.4033 34.7939 62.4033H30.4911V70.4687H27.1166V49.5908ZM34.7289 59.4306C35.9172 59.4306 36.8362 59.1218 37.4861 58.4997C38.1313 57.8775 38.4562 57.0479 38.4562 56.0155C38.4562 54.9831 38.1313 54.1489 37.4861 53.5175C36.8362 52.8861 35.9218 52.5681 34.7289 52.5681H30.4911V59.4306H34.7289Z" fill="#FEFEFE"/>
<path d="M4.78555 25.1406H8.16004V43.0136H17.7822V46.0185H4.78555V25.1406Z" fill="#FEFEFE"/>
<path d="M23.5518 25.1406H26.9263V43.0136H36.5485V46.0185H23.5518V25.1406Z" fill="#FEFEFE"/>
<path d="M41.8957 37.5984C43.7286 37.5984 45.2144 36.1231 45.2144 34.3031C45.2144 32.4832 43.7286 31.0078 41.8957 31.0078C40.0627 31.0078 38.5769 32.4832 38.5769 34.3031C38.5769 36.1231 40.0627 37.5984 41.8957 37.5984Z" fill="#FEFEFE"/>
<path d="M50 74.3862H0V82H50V74.3862Z" fill="#FEFEFE"/>
<path d="M5.72317 79.7825C5.43539 79.6212 5.20795 79.4 5.04549 79.1235C4.88303 78.8469 4.79484 78.5335 4.79484 78.1925C4.79484 77.8514 4.87839 77.5426 5.04549 77.2615C5.21259 76.9804 5.44003 76.7638 5.72317 76.6025C6.00631 76.4411 6.32195 76.3628 6.66543 76.3628C7.00891 76.3628 7.3199 76.4411 7.60769 76.6025C7.89547 76.7638 8.12291 76.985 8.29001 77.2615C8.45711 77.538 8.54066 77.8514 8.54066 78.1925C8.54066 78.5335 8.45711 78.8423 8.29001 79.1235C8.12291 79.4046 7.89547 79.6212 7.60769 79.7825C7.3199 79.9438 7.00427 80.0222 6.66543 80.0222C6.32659 80.0222 6.00631 79.9438 5.72317 79.7825ZM7.32454 79.3355C7.51949 79.2249 7.67267 79.0682 7.78407 78.8654C7.89547 78.6626 7.95117 78.4414 7.95117 78.1879C7.95117 77.9344 7.89547 77.7224 7.78407 77.5242C7.67267 77.326 7.51949 77.1693 7.32454 77.0541C7.12959 76.9389 6.91144 76.8836 6.67007 76.8836C6.4287 76.8836 6.2059 76.9389 6.01095 77.0541C5.816 77.1647 5.66283 77.3214 5.55607 77.5196C5.44467 77.7178 5.38897 77.939 5.38897 78.1879C5.38897 78.4368 5.44467 78.6626 5.55607 78.8654C5.66747 79.0682 5.82065 79.2203 6.01095 79.3355C6.2059 79.4461 6.42406 79.506 6.67007 79.506C6.91608 79.506 7.12959 79.4507 7.32454 79.3355Z" fill="#1C252B"/>
<path d="M16.4965 76.4183V80.0224H16.3015L14.1292 77.5613V79.9625H13.5537V76.3584H13.7532L15.9209 78.8057V76.4183H16.4965Z" fill="#1C252B"/>
<path d="M21.7276 76.4185H22.3032V79.4511H23.9371V79.9626H21.7323V76.4185H21.7276Z" fill="#1C252B"/>
<path d="M28.8387 76.4185H29.4096V79.9626H28.8387V76.4185Z" fill="#1C252B"/>
<path d="M37.5789 76.4183V80.0224H37.384L35.2117 77.5613V79.9625H34.6361V76.3584H34.8357L37.0033 78.8057V76.4183H37.5789Z" fill="#1C252B"/>
<path d="M42.8101 76.4185H45.1587V76.93H43.3856V77.838H44.7224V78.3311H43.3856V79.4511H45.2237V79.9626H42.8101V76.4185Z" fill="#1C252B"/>
</g>
<defs>
<clipPath id="clip0_228_99">
<rect width="50" height="82" fill="white"/>
</clipPath>
</defs>
</svg>
