<svg width="50" height="82" viewBox="0 0 50 82" fill="none" xmlns="http://www.w3.org/2000/svg">
<g clip-path="url(#clip0_226_71)">
<path d="M18.005 21.2236L12.0173 13.1582H8.16469V21.2236H4.7902V0.345661H12.4629C13.8647 0.345661 15.1086 0.612972 16.1901 1.1522C17.2716 1.69143 18.1118 2.44267 18.7059 3.41513C19.3 4.38759 19.5971 5.49371 19.5971 6.73808C19.5971 8.1069 19.2351 9.3098 18.5156 10.3422C17.7915 11.3746 16.8075 12.135 15.5542 12.6189L21.8622 21.2236H18.0097H18.005ZM8.16469 10.1855H12.4025C13.5722 10.1855 14.482 9.86747 15.1411 9.23606C15.8002 8.60465 16.1298 7.77968 16.1298 6.77035C16.1298 5.76102 15.8002 4.90378 15.1411 4.27237C14.482 3.64096 13.5676 3.32295 12.4025 3.32295H8.16469V10.1855Z" fill="#1C252B"/>
<path d="M28.5973 20.1497C26.9077 19.2003 25.5756 17.9052 24.6008 16.2599C23.6214 14.6145 23.134 12.7895 23.134 10.7892C23.134 8.78901 23.6261 6.95931 24.6147 5.31857C25.6034 3.67322 26.9356 2.37815 28.6112 1.42873C30.2869 0.479316 32.1342 0.00460815 34.1534 0.00460815C36.1725 0.00460815 37.9967 0.479316 39.6955 1.42873C41.3944 2.37815 42.7358 3.67322 43.7245 5.31857C44.7131 6.96392 45.2052 8.78901 45.2052 10.7892C45.2052 12.7895 44.7131 14.6145 43.7245 16.2599C42.7358 17.9052 41.3944 19.2003 39.6955 20.1497C37.9967 21.0991 36.1493 21.5739 34.1534 21.5739C32.1574 21.5739 30.2822 21.0991 28.5926 20.1497H28.5973ZM38.0431 17.5089C39.1896 16.8452 40.0947 15.9234 40.7492 14.739C41.4083 13.5591 41.7378 12.2318 41.7378 10.7524C41.7378 9.27293 41.4083 8.01012 40.7492 6.83026C40.09 5.6504 39.1896 4.72864 38.0431 4.06036C36.8966 3.39669 35.6108 3.06486 34.1905 3.06486C32.7701 3.06486 31.4519 3.39669 30.3054 4.06036C29.1589 4.72403 28.2631 5.64119 27.6133 6.81182C26.9634 7.98246 26.6431 9.29597 26.6431 10.7478C26.6431 12.1995 26.9681 13.5545 27.6133 14.7344C28.2631 15.9142 29.1589 16.836 30.3054 17.5043C31.4519 18.1679 32.7469 18.4998 34.1905 18.4998C35.634 18.4998 36.8966 18.1679 38.0431 17.5043V17.5089Z" fill="#1C252B"/>
<path d="M8.97697 69.7728C7.67266 69.0769 6.64686 68.0629 5.90419 66.7356C5.16152 65.4083 4.79019 63.8367 4.79019 62.0208V49.5908H8.16468V62.242C8.16468 64.0118 8.6567 65.376 9.64537 66.3208C10.634 67.2702 11.9012 67.7449 13.4515 67.7449C15.0019 67.7449 16.2319 67.2702 17.2113 66.3208C18.186 65.3714 18.678 64.0118 18.678 62.242V49.5908H22.0572V62.0208C22.0572 63.8367 21.6858 65.4037 20.9432 66.7356C20.2005 68.0629 19.1747 69.0769 17.8704 69.7728C16.5661 70.4687 15.0947 70.8144 13.4562 70.8144C11.8177 70.8144 10.2859 70.4687 8.98161 69.7728H8.97697Z" fill="#1C252B"/>
<path d="M27.1166 49.5908H34.7939C36.1957 49.5908 37.4397 49.8581 38.5212 50.3974C39.6027 50.9366 40.4428 51.6878 41.0369 52.6603C41.6311 53.6328 41.9281 54.7389 41.9281 55.9832C41.9281 57.2276 41.6311 58.3337 41.0369 59.3062C40.4428 60.2787 39.6027 61.0345 38.5212 61.583C37.4397 62.1314 36.1957 62.4033 34.7939 62.4033H30.4911V70.4687H27.1166V49.5908ZM34.7289 59.4306C35.9172 59.4306 36.8362 59.1218 37.4861 58.4997C38.1313 57.8775 38.4562 57.0479 38.4562 56.0155C38.4562 54.9831 38.1313 54.1489 37.4861 53.5175C36.8362 52.8861 35.9218 52.5681 34.7289 52.5681H30.4911V59.4306H34.7289Z" fill="#1C252B"/>
<path d="M4.78555 25.1411H8.16004V43.0141H17.7822V46.019H4.78555V25.1411Z" fill="#1C252B"/>
<path d="M23.5518 25.1411H26.9263V43.0141H36.5485V46.019H23.5518V25.1411Z" fill="#1C252B"/>
<path d="M41.8957 37.5987C43.7286 37.5987 45.2144 36.1233 45.2144 34.3034C45.2144 32.4835 43.7286 31.0081 41.8957 31.0081C40.0627 31.0081 38.5769 32.4835 38.5769 34.3034C38.5769 36.1233 40.0627 37.5987 41.8957 37.5987Z" fill="#1C252B"/>
<path d="M50 74.3862H0V82H50V74.3862Z" fill="#1C252B"/>
<path d="M5.72317 79.7832C5.43539 79.6219 5.20795 79.4006 5.04549 79.1241C4.88303 78.8476 4.79484 78.5342 4.79484 78.1931C4.79484 77.8521 4.87839 77.5433 5.04549 77.2621C5.21259 76.981 5.44003 76.7644 5.72317 76.6031C6.00631 76.4418 6.32195 76.3634 6.66543 76.3634C7.00891 76.3634 7.3199 76.4418 7.60769 76.6031C7.89547 76.7644 8.12291 76.9856 8.29001 77.2621C8.45711 77.5387 8.54066 77.8521 8.54066 78.1931C8.54066 78.5342 8.45711 78.843 8.29001 79.1241C8.12291 79.4052 7.89547 79.6219 7.60769 79.7832C7.3199 79.9445 7.00427 80.0228 6.66543 80.0228C6.32659 80.0228 6.00631 79.9445 5.72317 79.7832ZM7.32454 79.3361C7.51949 79.2255 7.67267 79.0688 7.78407 78.866C7.89547 78.6632 7.95117 78.442 7.95117 78.1885C7.95117 77.935 7.89547 77.723 7.78407 77.5248C7.67267 77.3267 7.51949 77.17 7.32454 77.0547C7.12959 76.9395 6.91144 76.8842 6.67007 76.8842C6.4287 76.8842 6.2059 76.9395 6.01095 77.0547C5.816 77.1654 5.66283 77.3221 5.55607 77.5202C5.44467 77.7184 5.38897 77.9396 5.38897 78.1885C5.38897 78.4374 5.44467 78.6632 5.55607 78.866C5.66747 79.0688 5.82065 79.2209 6.01095 79.3361C6.2059 79.4467 6.42406 79.5066 6.67007 79.5066C6.91608 79.5066 7.12959 79.4513 7.32454 79.3361Z" fill="#FEFEFE"/>
<path d="M16.4965 76.4187V80.0228H16.3015L14.1292 77.5617V79.9629H13.5537V76.3588H13.7532L15.9209 78.8061V76.4187H16.4965Z" fill="#FEFEFE"/>
<path d="M21.7276 76.4187H22.3032V79.4513H23.9371V79.9629H21.7323V76.4187H21.7276Z" fill="#FEFEFE"/>
<path d="M28.8387 76.4187H29.4096V79.9629H28.8387V76.4187Z" fill="#FEFEFE"/>
<path d="M37.5789 76.4187V80.0228H37.384L35.2117 77.5617V79.9629H34.6361V76.3588H34.8357L37.0033 78.8061V76.4187H37.5789Z" fill="#FEFEFE"/>
<path d="M42.8101 76.4187H45.1587V76.9303H43.3856V77.8382H44.7224V78.3314H43.3856V79.4513H45.2237V79.9629H42.8101V76.4187Z" fill="#FEFEFE"/>
</g>
<defs>
<clipPath id="clip0_226_71">
<rect width="50" height="82" fill="white"/>
</clipPath>
</defs>
</svg>
