<svg width="40" height="40" viewBox="0 0 40 40" fill="none" xmlns="http://www.w3.org/2000/svg">
<circle cx="20" cy="20" r="20" fill="#2F9EA5"/>
<path d="M27.125 22.3438C27.75 22.625 28.0938 23.3125 27.9375 23.9688L27.2812 26.9062C27.125 27.5625 26.5625 28 25.875 28C18.2188 28 12 21.7812 12 14.125C12 13.4375 12.4375 12.875 13.0938 12.75L16.0312 12.0625C16.6875 11.9062 17.375 12.25 17.6562 12.875L19 16.0625C19.25 16.625 19.0938 17.3125 18.625 17.7188L17.3438 18.75C18.25 20.375 19.625 21.75 21.25 22.6562L22.3125 21.4062C22.6875 20.9062 23.375 20.75 23.9375 20.9688L27.125 22.3438ZM26.2812 26.6875L26.9688 23.75C27.0312 23.5312 26.9062 23.3438 26.7188 23.25L23.5625 21.9062C23.375 21.8438 23.1875 21.875 23.0625 22.0312L21.7812 23.5938C21.625 23.7812 21.375 23.8438 21.1875 23.7188C19.0625 22.6875 17.3125 20.9375 16.2812 18.8438C16.1562 18.625 16.2188 18.375 16.4062 18.2188L17.9688 16.9375C18.125 16.8125 18.1562 16.625 18.0938 16.4375L16.75 13.2812C16.6562 13.125 16.5 13 16.3438 13C16.3125 13 16.2812 13.0312 16.25 13.0312L13.3125 13.7188C13.125 13.75 13 13.9062 13 14.125C13 21.2188 18.7812 27.0312 25.875 27.0312C26.0938 27.0312 26.25 26.875 26.2812 26.6875Z" fill="#FEFEFE"/>
</svg>
